PathFileType  4	(X/Y/Z) C:\Users\antoi\Documents\MyRepositories\mobilecap\ResultsAnalysis
DataRate	CameraRate	NumFrames	NumMarkers	Units	OrigDataRate	OrigDataStartFrame	OrigNumFrames
100.0	100.0	4	51	mm	100.0	1	138
Frame#	Time	r_knee			r_shank_antsup			r_ankle			r_calc			r_5meta			r_toe			L_knee			L_shank_antsup			L_ankle			L_calc			L_5meta			L_toe			r_sh2			r_sh3			r_sh4			L_sh2			L_sh3			r_thigh1			r_thigh2			r_thigh3			r_thigh4			r_thigh5			L_thigh1			L_thigh2			L_thigh3			L_thigh4			r.ASIS			r.PSIS			L.ASIS			L.PSIS			C7			R_Shoulder			L_Shoulder			R_Sternum			L_Sternum			R_humerus			R_elbow_med			R_elbow_lat			R_forearm			R_wrist_radius			R_wrist_ulna			L_humerus			L_elbow_med			L_elbow_lat			L_forearm			L_wrist_radius			L_wrist_ulna			R_HJC			L_HJC			R_HJC_reg			L_HJC_reg			
		X1	Y1	Z1	X2	Y2	Z2	X3	Y3	Z3	X4	Y4	Z4	X5	Y5	Z5	X6	Y6	Z6	X7	Y7	Z7	X8	Y8	Z8	X9	Y9	Z9	X10	Y10	Z10	X11	Y11	Z11	X12	Y12	Z12	X13	Y13	Z13	X14	Y14	Z14	X15	Y15	Z15	X16	Y16	Z16	X17	Y17	Z17	X18	Y18	Z18	X19	Y19	Z19	X20	Y20	Z20	X21	Y21	Z21	X22	Y22	Z22	X23	Y23	Z23	X24	Y24	Z24	X25	Y25	Z25	X26	Y26	Z26	X27	Y27	Z27	X28	Y28	Z28	X29	Y29	Z29	X30	Y30	Z30	X31	Y31	Z31	X32	Y32	Z32	X33	Y33	Z33	X34	Y34	Z34	X35	Y35	Z35	X36	Y36	Z36	X37	Y37	Z37	X38	Y38	Z38	X39	Y39	Z39	X40	Y40	Z40	X41	Y41	Z41	X42	Y42	Z42	X43	Y43	Z43	X44	Y44	Z44	X45	Y45	Z45	X46	Y46	Z46	X47	Y47	Z47	X48	Y48	Z48	X49	Y49	Z49	X50	Y50	Z50	X51	Y51	Z51	

1	0.00000000	-59.22799	459.28822	-141.87941	19.72602	375.63622	-160.71186	68.51006	97.55424	-196.37161	45.35745	45.45974	-252.39158	195.57357	97.53633	-167.39928	218.20126	138.21974	-204.12976	-352.29986	457.27627	-442.12110	-347.87762	347.55095	-390.47763	-522.27948	98.20348	-390.18564	-578.89785	68.85719	-341.70648	-415.05358	34.78617	-401.87924	-375.57779	49.35109	-348.29857	54.46749	270.13422	-180.17481	-36.31845	347.18485	-117.29626	-17.27045	239.61457	-147.47194	-388.93710	377.03483	-462.01357	-438.66538	267.15548	-464.21981	-105.74494	765.82098	-142.77609	-55.27421	667.71995	-144.05016	-87.43253	625.67308	-98.94914	-196.64986	718.43274	-97.49253	-143.20082	616.03711	-96.22915	-196.41854	722.80857	-462.31976	-225.07267	588.84030	-451.23161	-300.92695	745.40239	-497.37774	-331.82271	610.28878	-478.69814	-131.07554	903.85565	-177.38316	-318.67724	938.08719	-231.30857	-137.13628	899.25579	-421.58773	-325.50827	947.39500	-347.24631	-292.46742	1397.21474	-285.07527	-250.43382	1358.81475	-130.36681	-216.51938	1378.30366	-436.07618	-166.59519	1344.50038	-257.03510	-162.25160	1343.89821	-300.73359	-268.26927	1231.31853	-65.55388	-375.48315	1059.12000	-141.09165	-372.81923	1065.55812	-64.93408	-370.43610	940.91082	-32.84406	-378.42631	837.52093	-25.02296	-415.24244	846.50935	-17.32738	-160.31308	1245.24839	-503.09924	-177.10254	1039.44007	-479.76253	-156.14231	1060.29242	-547.17722	-64.34824	1013.15132	-559.75179	38.17302	933.57229	-543.37007	19.78553	912.13815	-562.13419	-219.99164	828.87824	-196.72705	-224.53516	826.05978	-386.02790	-197.72783	820.31380	-213.89844	-207.18205	833.19605	-374.35701	
2	0.01000000	-44.80329	458.29377	-143.12043	31.43686	372.28573	-162.91531	72.78610	94.04109	-197.45541	47.32480	44.72269	-253.77834	198.75192	89.74580	-167.65238	223.77359	128.95269	-204.43652	-342.18688	456.59960	-440.54570	-340.02972	346.54176	-389.69471	-520.37542	101.26628	-390.13052	-577.35728	73.06418	-341.76463	-414.70154	34.80560	-401.97994	-374.38892	48.40136	-348.54710	63.51336	265.92650	-182.35149	-23.86270	345.30702	-117.88185	-8.01080	237.27531	-147.69213	-380.81067	377.44544	-460.59609	-433.28502	268.84339	-463.29138	-89.66410	765.30646	-141.10764	-40.07879	666.88694	-143.18118	-72.24833	624.58013	-98.44337	-181.14399	717.93631	-96.33380	-128.11768	615.21146	-95.73916	-184.39867	720.93144	-461.88212	-213.78029	586.93430	-450.27570	-288.46541	744.11215	-495.69993	-320.52168	609.27776	-476.80462	-115.61937	903.34960	-176.60242	-303.48287	937.31730	-230.51039	-122.55799	896.96690	-421.02873	-310.65477	946.03680	-346.33539	-280.04802	1395.29068	-283.94088	-237.87573	1357.10908	-129.21002	-204.15869	1377.10668	-434.99435	-153.84711	1343.19836	-255.90186	-149.49271	1342.67539	-299.65400	-254.88445	1229.44313	-64.49624	-361.50288	1056.92420	-140.41897	-358.98717	1063.43753	-64.23461	-357.55253	939.07271	-32.10770	-366.71793	835.75238	-24.26362	-403.49871	845.04441	-16.60944	-147.94598	1244.02604	-502.55353	-164.68394	1038.09478	-478.18543	-143.91804	1058.77230	-545.72346	-51.97873	1011.84632	-558.34371	50.37591	932.53757	-541.87906	32.52375	911.14606	-560.48511	-204.79572	828.32602	-195.33814	-209.91223	824.18503	-384.59555	-182.46178	819.24363	-212.53829	-192.41328	831.33646	-373.22658	
3	0.02000000	-30.80096	457.38434	-144.12611	43.07734	369.27993	-164.90403	77.33764	90.86613	-198.44243	49.54177	44.41974	-255.12338	202.16157	82.06930	-168.12608	229.58944	119.73401	-204.95351	-331.77867	455.95837	-438.94670	-331.88570	345.55654	-388.92761	-518.25893	104.54745	-390.11314	-575.62168	77.58350	-341.85597	-414.26704	34.85367	-402.08625	-373.17327	47.46804	-348.74767	72.71788	262.15066	-184.34979	-11.50231	343.61307	-118.34251	1.42030	235.18756	-147.84307	-372.35974	377.95647	-459.15972	-427.63731	270.68937	-462.35978	-73.64128	764.88776	-139.53295	-24.95850	666.09209	-142.29552	-57.23084	623.64946	-97.87027	-165.59822	717.72625	-95.16720	-113.19386	614.61867	-95.13359	-172.14795	719.11330	-461.32382	-202.20446	585.09971	-449.29661	-275.80905	742.84524	-494.01397	-308.97757	608.30041	-474.85276	-100.09904	902.95263	-175.82972	-288.20561	936.68115	-229.66666	-107.88241	894.77816	-420.46997	-295.69003	944.77135	-345.42373	-267.61381	1393.47975	-282.75630	-225.30542	1355.50611	-128.00670	-191.81600	1376.00805	-433.90065	-141.09548	1342.04312	-254.72730	-136.73251	1341.58642	-298.52810	-241.46303	1227.64273	-63.41788	-347.29827	1054.71262	-139.71397	-345.01829	1061.34525	-63.51787	-344.47050	937.25980	-31.35410	-354.74227	834.01345	-23.49217	-391.57659	843.61408	-15.94829	-135.60489	1242.83769	-501.92623	-152.34993	1036.80966	-476.55136	-131.78671	1057.30230	-544.21393	-39.74906	1010.51868	-556.90638	62.46214	931.41942	-540.37131	45.03658	910.05530	-558.82611	-189.51451	827.88979	-193.93715	-195.20397	822.41651	-383.14595	-167.15458	818.33173	-211.16955	-177.56008	829.57345	-372.08929	
4	0.03000000	-17.53109	456.65997	-144.70466	54.58200	366.85304	-166.47517	82.29237	88.26169	-199.26184	52.13516	44.80432	-256.36270	205.90200	74.62384	-168.93038	235.70868	110.63698	-205.80681	-320.79108	455.37797	-437.31037	-323.16363	344.61211	-388.19395	-515.73721	108.24315	-390.16698	-573.50012	82.68783	-342.00533	-413.67316	34.95386	-402.20086	-371.91761	46.55756	-348.86778	82.13919	259.09840	-185.99601	0.65344	342.24851	-118.56549	11.07355	233.53901	-147.85269	-363.27949	378.64228	-457.69705	-421.46252	272.82347	-461.42973	-57.71602	764.67193	-138.15615	-9.97514	665.40173	-141.40524	-42.48643	623.03691	-97.18724	-149.98030	718.04540	-93.99005	-98.53166	614.46365	-94.32543	-159.47134	717.42409	-460.53935	-190.08735	583.40997	-448.26876	-262.80557	741.63810	-492.29245	-296.96726	607.38272	-472.79673	-84.48271	902.78689	-175.07154	-272.79899	936.30103	-228.75989	-93.03091	892.78747	-419.90306	-280.53396	943.67328	-344.52301	-255.14915	1391.89208	-281.48283	-212.71001	1354.09988	-126.72161	-179.49502	1375.09512	-432.78522	-128.33835	1341.16286	-253.47980	-123.96830	1340.75244	-297.32412	-227.96721	1225.98692	-62.30530	-332.70249	1052.49353	-138.95245	-330.80100	1059.31628	-62.77019	-331.02386	935.50237	-30.56953	-342.26982	832.33412	-22.69991	-379.31545	842.24421	-15.39082	-123.30733	1241.72172	-501.15018	-140.17074	1035.64269	-474.80974	-119.82720	1055.93126	-542.60014	-27.77704	1009.15423	-555.41415	74.31225	930.14360	-538.83562	57.13437	908.78765	-557.14991	-174.09098	827.68857	-192.51255	-180.33648	820.84988	-381.66274	-151.78500	817.73957	-209.78082	-162.55171	827.99889	-370.93075	
